<svg xmlns="http://www.w3.org/2000/svg" width="260" height="260" viewBox="0 0 260 260" fill="none">
<rect width="260" height="260" rx="44" fill="#07040C"/>
<path d="M101.999 199.342C80.7381 199.342 62.4939 191.872 47.5538 176.788C32.4701 161.704 25 143.604 25 122.343C25 101.082 32.4701 82.8375 47.5538 67.8974C62.4939 52.8137 80.5944 45.2 101.999 45.2C123.26 45.2 141.504 52.67 156.444 67.7538C171.528 82.8375 178.998 100.938 178.998 122.199C178.998 143.46 171.528 161.704 156.444 176.644C141.36 191.872 123.26 199.342 101.999 199.342Z" fill="#6E02C0"/>
<path d="M88.6392 122.343C88.6392 118.751 89.932 115.591 92.5178 113.005C95.1036 110.419 98.264 109.126 101.855 109.126C105.447 109.126 108.607 110.419 111.193 113.005C113.779 115.591 115.072 118.751 115.072 122.343V126.652C121.105 123.779 127.713 122.343 134.896 122.343C147.681 122.343 158.599 126.796 167.649 135.846C176.7 144.896 181.153 155.814 181.153 168.599C181.153 181.385 176.7 192.302 167.649 201.353C158.599 210.403 147.681 214.856 134.896 214.856C122.111 214.856 111.193 210.403 102.143 201.353C93.0925 192.302 88.6392 181.385 88.6392 168.599V122.343ZM120.961 182.678C124.84 186.556 129.581 188.567 135.04 188.567C140.499 188.567 145.239 186.556 149.118 182.678C152.997 178.799 155.008 174.058 155.008 168.599C155.008 163.141 152.997 158.4 149.118 154.521C145.239 150.643 140.499 148.631 135.04 148.631C129.581 148.631 124.84 150.643 120.961 154.521C117.083 158.4 115.072 163.141 115.072 168.599C115.215 174.058 117.083 178.799 120.961 182.678Z" fill="#FCFCFC"/>
<path d="M221.089 109.126C224.68 109.126 227.841 110.419 230.427 113.005C233.012 115.591 234.305 118.751 234.305 122.342V201.784C234.305 205.375 233.012 208.535 230.427 211.121C227.841 213.707 224.68 215 221.089 215C217.498 215 214.337 213.707 211.751 211.121C209.166 208.535 207.873 205.375 207.873 201.784V135.559C204.281 135.559 201.121 134.266 198.535 131.68C195.949 129.094 194.656 125.934 194.656 122.342C194.656 118.751 195.949 115.591 198.535 113.005C201.121 110.419 204.281 109.126 207.873 109.126H221.089Z" fill="#FCFCFC"/>
</svg>